{"glyphs":{":":{"x_min":0,"x_max":294,"ha":294,"o":"m 58 423 q 58 464 85 491 q 113 519 153 519 q 193 519 220 491 q 248 463 248 423 q 248 383 220 356 q 193 328 153 328 q 113 328 85 355 q 58 383 58 423 z m 11 81 q 11 122 39 149 q 66 177 106 177 q 146 177 173 149 q 200 122 200 81 q 200 41 173 13 q 146 -14 106 -14 q 66 -14 39 13 q 11 41 11 81 z"},"$":{"x_min":0,"x_max":588,"ha":588,"o":"m 207 0 q 114 15 86 36 q 59 57 59 112 q 59 176 69 201 q 79 225 102 225 q 127 225 142 183 q 150 161 156 149 q 177 108 204 88 q 230 68 263 68 q 298 68 325 93 q 352 118 352 149 q 352 198 226 281 q 208 293 198 300 q 150 332 128 365 q 106 399 106 441 q 106 514 159 566 q 212 619 298 629 l 308 695 q 312 715 315 718 q 319 722 334 722 l 375 722 q 384 722 388 719 q 392 715 392 708 q 392 704 391 698 l 380 629 q 458 619 486 600 q 514 581 514 540 q 514 483 505 465 q 496 446 473 446 q 452 446 429 484 l 427 488 q 401 533 382 547 q 363 561 336 561 q 302 561 280 537 q 257 514 257 478 q 257 436 354 371 q 383 352 399 341 q 455 303 479 267 q 504 231 504 190 q 504 111 443 55 q 381 0 290 -2 l 279 -78 q 276 -102 270 -106 q 265 -111 249 -111 l 219 -111 q 204 -111 199 -107 q 194 -104 194 -94 q 194 -91 195 -84 q 197 -77 197 -74 z"},"?":{"x_min":0,"x_max":528,"ha":528,"o":"m 107 81 q 107 122 134 149 q 162 176 202 176 q 242 176 270 148 q 297 121 297 81 q 297 41 269 13 q 242 -14 202 -14 q 162 -14 135 13 q 107 41 107 81 z m 226 231 q 201 231 190 242 q 179 253 179 279 q 179 353 266 462 q 280 479 287 489 q 312 521 324 552 q 336 582 336 612 q 336 639 323 652 q 310 666 283 666 q 270 666 257 660 q 244 655 233 644 q 219 630 209 595 q 206 581 203 574 q 191 537 171 521 q 150 504 118 504 q 94 504 79 520 q 65 537 65 564 q 65 636 135 689 q 206 741 309 741 q 393 741 442 700 q 491 659 491 589 q 491 554 478 523 q 465 492 441 468 q 418 446 370 410 q 321 374 303 353 q 285 333 276 285 q 273 270 271 262 q 267 247 256 239 q 244 231 226 231 z"},"<":{"x_min":0,"x_max":833,"ha":833,"o":"m 704 593 l 704 469 l 287 298 l 704 128 l 704 4 l 129 241 l 129 355 z"},"'":{"x_min":0,"x_max":181,"ha":181,"o":"m 101 413 l 80 413 l 38 639 q 37 646 36 650 q 36 654 36 657 q 36 683 51 699 q 66 715 91 715 q 116 715 130 699 q 145 684 145 658 q 145 654 145 650 q 144 646 143 639 z"},"=":{"x_min":0,"x_max":833,"ha":833,"o":"m 124 245 l 709 245 l 709 133 l 124 133 z m 124 464 l 709 464 l 709 351 l 124 351 z"},"a":{"x_min":0,"x_max":597,"ha":597,"o":"m 544 479 q 544 464 534 403 q 527 359 523 331 q 514 265 507 210 q 501 155 501 145 q 501 129 506 124 q 511 118 525 118 q 527 118 532 119 q 537 119 539 119 q 550 119 556 115 q 561 110 561 100 q 561 83 550 68 q 539 52 516 37 q 480 14 450 1 q 419 -11 397 -11 q 381 -11 373 -5 q 365 0 357 18 q 350 33 347 52 q 345 72 341 72 q 336 72 318 59 q 304 48 294 42 q 245 11 212 -2 q 179 -14 150 -14 q 84 -14 45 34 q 6 82 6 162 q 6 217 22 271 q 38 325 69 373 q 114 445 174 484 q 233 524 295 524 q 328 524 370 508 q 412 491 421 491 q 431 491 461 508 q 492 524 512 524 q 526 524 535 512 q 544 500 544 479 z m 378 361 q 378 397 364 418 q 350 439 325 439 q 304 439 284 427 q 264 414 244 388 q 213 347 192 287 q 172 227 172 176 q 172 140 186 119 q 200 98 225 98 q 246 98 266 111 q 286 124 306 150 q 337 192 358 251 q 378 311 378 361 z"},"L":{"x_min":0,"x_max":597,"ha":597,"o":"m 70 0 q 16 0 -7 10 q -29 20 -29 43 q -29 71 3 86 q 36 101 40 107 q 44 114 50 132 q 55 150 61 179 q 87 308 100 411 q 113 514 113 588 q 113 612 109 619 q 106 625 94 633 q 91 635 87 637 q 58 655 58 676 q 58 707 94 721 q 129 735 211 735 q 315 735 346 724 q 376 713 376 683 q 376 658 345 641 q 314 624 311 620 q 307 615 304 604 q 301 593 296 567 q 271 422 257 303 q 242 184 242 146 q 242 117 260 106 q 278 95 332 95 l 364 95 q 403 95 425 106 q 448 117 472 155 q 479 166 489 188 q 512 233 539 233 q 557 233 567 223 q 576 213 576 194 q 576 164 563 118 q 551 72 529 25 q 520 6 510 -4 q 501 -14 491 -14 q 489 -14 480 -11 q 447 0 414 0 z"},"3":{"x_min":0,"x_max":588,"ha":588,"o":"m 372 329 q 442 310 476 271 q 510 232 510 171 q 510 118 484 69 q 458 20 412 -17 q 360 -58 295 -80 q 229 -101 157 -101 q 73 -101 18 -80 q -36 -59 -36 -28 q -36 -11 -22 1 q -9 14 9 14 q 20 14 69 0 q 118 -14 157 -14 q 233 -14 283 29 q 333 72 333 137 q 333 189 302 217 q 271 244 211 244 q 192 244 169 240 q 147 237 144 237 q 132 237 126 246 q 120 256 120 276 q 120 317 168 332 q 180 335 186 337 q 250 357 288 396 q 325 436 325 480 q 325 514 304 533 q 283 553 248 553 q 212 553 166 531 q 119 510 106 510 q 89 510 79 518 q 69 527 69 541 q 69 579 139 612 q 209 646 299 646 q 388 646 441 605 q 494 563 494 494 q 494 441 462 397 q 429 354 372 329 z"},";":{"x_min":0,"x_max":294,"ha":294,"o":"m -4 -187 q -4 -179 16 -154 q 36 -129 47 -114 q 65 -88 75 -65 q 86 -42 86 -29 q 86 -21 84 -16 q 82 -11 78 -9 q 75 -8 69 -5 q 16 17 16 67 q 16 114 44 144 q 72 175 114 175 q 151 175 173 148 q 195 121 195 75 q 195 38 177 -7 q 160 -51 125 -102 l 123 -104 q 53 -209 24 -209 q 13 -209 5 -202 q -4 -195 -4 -187 z m 58 423 q 58 464 85 491 q 113 519 153 519 q 193 519 220 491 q 248 463 248 423 q 248 383 220 356 q 193 328 153 328 q 113 328 85 355 q 58 383 58 423 z"},"J":{"x_min":0,"x_max":590,"ha":590,"o":"m 603 686 q 603 661 563 639 q 560 637 558 636 q 542 627 536 617 q 530 606 524 569 q 514 497 499 375 q 473 160 447 110 q 413 43 353 12 q 293 -19 201 -19 q 98 -19 38 22 q -21 62 -21 133 q -21 183 11 216 q 44 248 94 248 q 135 248 158 228 q 180 208 180 171 q 180 158 168 134 q 156 110 156 99 q 156 85 170 76 q 184 67 206 67 q 235 67 257 83 q 278 99 290 130 q 294 142 298 166 q 303 190 307 225 q 327 380 334 458 q 341 536 341 586 q 341 611 337 618 q 334 625 322 632 q 320 633 315 636 q 285 653 285 675 q 285 707 324 721 q 362 735 452 735 q 551 735 577 725 q 603 714 603 686 z"},"V":{"x_min":0,"x_max":729,"ha":729,"o":"m 131 561 q 123 593 116 606 q 109 619 99 625 q 92 629 77 634 q 38 648 38 674 q 38 706 82 720 q 125 734 224 734 q 301 734 330 723 q 359 712 359 686 q 359 671 352 662 q 346 653 329 645 q 327 644 324 643 q 302 634 302 612 q 302 597 316 537 q 330 478 354 392 q 357 381 362 362 q 387 273 395 273 q 397 273 401 278 q 405 282 410 291 l 559 554 q 571 576 578 591 q 584 606 584 614 q 584 629 562 640 q 556 643 553 644 q 539 651 533 659 q 528 667 528 678 q 528 707 561 720 q 594 734 667 734 q 727 734 754 722 q 781 711 781 686 q 781 660 720 636 l 720 636 q 710 632 694 612 q 679 592 662 562 l 541 345 q 482 239 423 128 q 364 18 361 13 q 350 -4 340 -11 q 330 -17 316 -17 q 300 -17 292 -10 q 283 -4 274 19 q 266 41 243 125 q 219 208 194 310 z"},"\"":{"x_min":0,"x_max":350,"ha":350,"o":"m 270 413 l 248 413 l 207 639 q 206 646 205 650 q 205 654 205 657 q 205 684 219 699 q 234 715 259 715 q 284 715 298 699 q 313 684 313 658 q 313 650 313 646 q 312 642 312 639 z m 101 413 l 80 413 l 38 639 q 37 646 36 650 q 36 654 36 657 q 36 684 51 699 q 65 715 90 715 q 115 715 130 699 q 145 684 145 658 q 145 654 145 650 q 144 646 143 639 z"},"7":{"x_min":0,"x_max":588,"ha":588,"o":"m 121 -11 l 385 426 q 398 447 405 462 q 412 476 412 482 q 412 493 401 498 q 391 502 362 502 l 213 502 q 181 502 166 497 q 150 491 141 478 q 138 473 132 464 q 107 428 87 428 q 74 428 66 437 q 58 445 58 459 q 58 480 72 522 q 85 563 107 602 q 121 626 133 638 q 146 649 159 649 q 161 649 167 646 q 202 632 255 632 l 523 632 q 568 632 580 626 q 591 620 591 603 q 591 597 581 573 q 570 549 540 485 l 287 -39 q 284 -44 279 -55 q 244 -127 219 -127 q 207 -127 188 -122 q 168 -117 148 -108 q 146 -107 140 -104 q 98 -87 98 -67 q 98 -59 104 -44 q 110 -29 121 -11 z"},"S":{"x_min":0,"x_max":625,"ha":625,"o":"m 273 80 q 325 80 354 105 q 384 130 384 174 q 384 228 283 286 l 276 290 l 266 295 q 187 340 147 374 q 115 401 99 438 q 83 476 83 521 q 83 617 154 679 q 225 741 335 741 q 376 741 417 730 q 458 719 458 719 q 460 719 476 726 q 491 732 505 732 q 536 732 560 683 q 585 635 585 571 q 585 543 573 530 q 562 516 538 516 q 520 516 507 525 q 495 534 474 568 q 447 612 419 633 q 390 653 356 653 q 312 653 284 627 q 257 601 257 558 q 257 492 373 433 q 386 427 393 423 q 456 390 481 374 q 505 357 518 342 q 542 312 553 281 q 565 249 565 213 q 565 112 482 46 q 400 -19 269 -19 q 205 -19 150 -2 q 95 16 57 47 q 38 63 27 99 q 16 134 16 182 q 16 219 31 240 q 46 261 72 261 q 100 261 122 212 q 129 194 134 185 q 163 127 195 104 q 226 80 273 80 z"},"}":{"x_min":0,"x_max":500,"ha":500,"o":"m 84 740 l 90 740 q 202 740 243 704 q 285 668 285 571 l 285 480 q 285 398 312 367 q 338 337 413 330 l 413 291 q 338 284 312 253 q 285 223 285 141 l 285 50 q 285 -47 243 -83 q 202 -119 90 -119 l 84 -119 l 84 -88 q 138 -86 158 -61 q 178 -36 178 41 l 178 105 q 178 215 203 255 q 228 294 293 310 q 228 327 203 366 q 178 406 178 516 l 178 580 q 178 657 158 682 q 138 707 84 708 z"},"Z":{"x_min":0,"x_max":634,"ha":634,"o":"m 40 0 q 4 0 -13 10 q -30 20 -30 41 q -30 53 -24 66 q -19 80 -9 92 l 376 576 q 385 587 389 595 q 393 603 393 608 q 393 617 381 622 q 368 627 347 627 l 256 627 q 212 627 191 618 q 170 609 149 578 q 142 568 131 550 q 102 500 74 500 q 58 500 51 508 q 45 517 45 538 q 45 564 57 606 q 70 648 91 691 q 105 719 117 729 q 129 739 146 739 q 147 739 152 738 q 196 728 250 728 l 572 728 q 610 728 626 719 q 643 709 643 689 q 643 679 637 665 q 631 652 621 639 l 255 176 q 240 158 233 144 q 225 131 225 123 q 225 115 241 110 q 257 106 289 106 l 366 106 q 420 106 443 117 q 465 128 487 161 q 494 171 505 190 q 532 236 556 236 q 572 236 580 228 q 588 220 588 203 q 588 179 579 142 q 570 105 555 67 q 535 19 522 4 q 510 -11 493 -11 q 493 -11 488 -10 q 452 0 391 0 z"},"x":{"x_min":0,"x_max":530,"ha":530,"o":"m 354 191 q 367 161 377 150 q 386 139 398 139 q 407 139 425 149 q 443 158 454 158 q 467 158 474 152 q 481 145 481 132 q 481 114 464 91 q 447 68 409 37 q 378 11 355 -2 q 332 -14 314 -14 q 291 -14 272 6 q 254 26 231 78 l 197 154 l 151 87 q 111 28 89 7 q 67 -14 48 -14 q 25 -14 0 25 q -25 65 -25 103 q -25 120 -17 128 q -8 136 9 136 q 16 136 30 127 q 45 118 53 118 q 66 118 86 134 q 105 150 128 181 l 161 225 l 127 313 q 115 344 105 358 q 95 372 83 372 q 77 372 60 367 q 43 363 33 363 q 21 363 14 370 q 7 377 7 388 q 7 401 17 416 q 28 431 51 450 q 89 482 123 500 q 156 519 175 519 q 189 519 201 509 q 214 499 222 481 l 270 375 l 332 457 q 363 498 377 508 q 390 519 403 519 q 425 519 451 479 q 477 439 477 400 q 477 383 471 373 q 465 363 456 363 q 441 363 420 374 q 399 385 394 385 q 386 385 378 379 q 371 373 356 355 l 307 295 z"},")":{"x_min":0,"x_max":407,"ha":407,"o":"m 82 740 q 120 740 165 712 q 210 684 253 634 q 298 581 322 511 q 346 440 346 360 q 346 275 318 192 q 290 110 237 39 q 174 -46 97 -98 q 20 -150 -38 -150 q -48 -150 -55 -144 q -62 -139 -62 -131 q -62 -126 -60 -122 q -58 -117 -54 -114 q -49 -110 -34 -100 q 34 -54 72 4 q 124 83 153 194 q 181 305 181 431 q 181 494 169 541 q 158 588 133 628 q 117 653 88 679 q 58 706 58 717 q 58 728 65 734 q 71 740 82 740 z"},"&":{"x_min":0,"x_max":940,"ha":940,"o":"m 284 400 q 255 364 242 328 q 228 292 228 254 q 228 177 276 130 q 325 82 403 82 q 472 82 518 119 q 564 156 564 208 q 564 241 547 261 q 531 281 504 281 q 476 281 452 260 q 428 239 428 221 q 428 218 421 214 q 415 210 408 210 q 395 210 385 222 q 376 235 376 254 q 376 295 410 328 q 443 361 551 415 q 573 426 612 445 q 784 529 784 579 q 784 597 774 607 q 764 617 745 617 q 735 617 719 612 q 703 607 697 607 q 687 607 681 613 q 676 619 676 631 q 676 665 714 693 q 752 720 803 720 q 855 720 886 692 q 917 664 917 616 q 917 542 858 488 q 800 434 657 379 q 689 359 704 331 q 719 303 719 264 q 719 212 693 162 q 667 111 618 72 q 562 26 487 3 q 413 -21 326 -21 q 195 -21 116 43 q 37 107 37 212 q 37 287 76 346 q 114 406 195 455 q 178 475 170 497 q 162 519 162 544 q 162 625 231 683 q 300 740 401 740 q 462 740 502 719 q 542 697 542 666 q 542 646 530 635 q 518 623 497 623 q 486 623 456 630 q 426 636 408 636 q 371 636 345 612 q 320 588 320 554 q 320 531 328 515 q 336 500 355 484 q 364 477 381 469 q 399 460 399 454 q 399 437 376 410 q 353 383 332 383 q 324 383 312 387 q 301 391 284 400 z"},"_":{"x_min":0,"x_max":500,"ha":500,"o":"m 0 -119 l 500 -119 l 500 -236 l 0 -236 z"},"v":{"x_min":0,"x_max":567,"ha":567,"o":"m 221 261 q 216 231 214 208 q 211 186 211 171 q 211 137 226 119 q 241 101 269 101 q 328 101 373 164 q 418 227 418 317 q 418 369 402 421 q 386 473 386 476 q 386 496 403 506 q 420 517 453 517 q 494 517 510 493 q 527 468 527 404 q 527 216 436 102 q 344 -13 198 -13 q 124 -13 83 25 q 42 64 42 134 q 42 168 55 239 q 68 309 68 343 q 68 371 63 380 q 58 390 38 396 q 37 396 35 397 q -6 409 -6 430 q -6 443 9 457 q 23 470 49 481 q 94 500 139 511 q 183 523 204 523 q 229 523 241 511 q 253 499 253 472 q 253 463 251 447 q 250 431 246 410 z"},"O":{"x_min":0,"x_max":799,"ha":799,"o":"m 375 77 q 463 77 520 170 q 577 263 577 411 q 577 522 536 584 q 495 645 421 645 q 331 645 276 552 q 222 458 222 300 q 222 193 262 135 q 302 77 375 77 z m 354 -18 q 204 -18 115 73 q 26 165 26 319 q 26 416 63 498 q 101 581 173 641 q 231 690 302 715 q 372 740 452 740 q 599 740 686 651 q 773 562 773 412 q 773 344 754 281 q 735 219 697 162 q 642 79 550 30 q 458 -18 354 -18 z"},"(":{"x_min":0,"x_max":407,"ha":407,"o":"m 298 -150 q 261 -150 216 -122 q 171 -95 128 -44 q 83 9 58 80 q 34 150 34 230 q 34 315 62 398 q 91 481 144 552 q 208 637 284 689 q 361 741 418 741 q 428 741 435 736 q 442 730 442 722 q 442 717 440 713 q 438 708 434 705 q 429 701 415 691 q 346 646 308 587 q 256 508 228 397 q 199 286 199 160 q 199 97 211 50 q 222 3 247 -37 q 263 -62 292 -88 q 322 -115 322 -126 q 322 -137 315 -143 q 309 -150 298 -150 z"},"C":{"x_min":0,"x_max":704,"ha":704,"o":"m 565 51 q 555 51 534 37 q 513 24 501 18 q 463 0 421 -10 q 380 -19 337 -19 q 194 -19 110 68 q 26 156 26 304 q 26 398 58 478 q 90 558 153 620 q 212 678 290 710 q 367 741 450 741 q 524 741 588 710 q 598 705 600 705 q 604 705 612 709 q 621 713 625 713 q 634 713 643 706 q 652 699 662 683 q 679 657 688 629 q 697 602 697 580 q 697 551 683 535 q 670 520 644 520 q 629 520 616 527 q 603 534 593 548 q 590 552 583 562 q 520 647 449 647 q 349 647 286 557 q 223 468 223 323 q 223 217 270 153 q 317 89 393 89 q 427 89 462 104 q 498 120 535 151 q 547 161 566 182 q 595 215 614 215 q 630 215 639 203 q 649 190 649 170 q 649 128 625 89 q 602 49 578 49 q 576 49 572 50 q 567 51 565 51 z"},"W":{"x_min":0,"x_max":1037,"ha":1037,"o":"m 512 363 l 346 44 q 326 5 314 -5 q 302 -16 286 -16 q 272 -16 264 -8 q 256 0 246 31 q 202 165 130 463 q 115 528 107 561 q 100 592 93 606 q 86 619 76 625 q 69 629 55 634 q 18 648 18 675 q 18 706 60 720 q 101 734 195 734 q 270 734 297 723 q 325 712 325 686 q 325 671 318 661 q 312 652 296 645 q 294 644 291 643 q 271 635 271 612 q 271 597 281 552 q 291 506 312 422 q 333 341 344 307 q 355 274 361 274 q 368 274 398 326 q 428 377 484 485 q 473 548 464 577 q 456 606 445 619 q 440 625 417 641 q 395 656 395 674 q 395 704 438 719 q 482 734 569 734 q 632 734 659 723 q 686 711 686 686 q 686 671 679 661 q 673 652 657 645 q 656 645 652 643 q 632 635 632 612 q 632 600 635 581 q 639 562 645 538 l 709 293 q 711 283 714 278 q 716 274 719 274 q 724 274 741 302 q 759 331 811 427 q 869 534 886 569 q 903 604 903 614 q 903 628 882 639 q 876 642 873 644 q 860 651 854 659 q 849 667 849 678 q 849 707 881 720 q 913 734 982 734 q 1037 734 1064 722 q 1092 711 1092 688 q 1092 673 1082 662 q 1072 651 1050 643 q 1049 643 1047 642 q 1028 636 1015 622 q 998 603 892 398 l 873 363 l 707 44 q 687 4 675 -6 q 664 -16 648 -16 q 631 -16 622 -4 q 612 8 599 56 z"},"A":{"x_min":0,"x_max":778,"ha":778,"o":"m 462 114 l 451 167 q 446 191 435 199 q 424 207 386 207 l 359 207 l 271 207 q 241 207 229 202 q 218 198 208 186 q 196 173 186 148 q 176 124 176 110 q 176 95 195 86 l 197 85 q 200 83 205 81 q 228 71 228 52 q 228 24 195 10 q 162 -5 98 -5 q 25 -5 -2 5 q -29 16 -29 41 q -29 72 26 91 l 28 92 q 65 104 106 181 q 111 190 114 195 q 197 346 261 475 q 325 604 337 637 q 346 659 353 687 q 361 715 362 719 q 366 729 377 735 q 389 741 405 741 q 450 741 469 734 q 489 727 501 709 q 518 684 553 516 q 572 427 584 373 q 620 213 635 165 q 649 117 660 106 q 663 103 680 97 q 697 91 707 84 q 715 79 719 71 q 723 62 723 51 q 723 22 684 8 q 644 -6 563 -6 q 466 -6 434 4 q 403 15 403 42 q 403 64 437 83 l 439 84 l 441 85 q 463 98 463 109 q 463 109 462 111 q 462 113 462 114 z m 285 297 l 405 297 q 412 297 414 300 q 417 302 417 308 q 417 310 417 313 q 416 317 415 324 l 406 380 q 398 436 387 470 q 376 505 368 505 q 363 505 356 496 q 349 486 342 470 l 276 321 q 274 317 273 313 q 272 310 272 307 q 272 303 276 300 q 280 297 285 297 z"},"f":{"x_min":0,"x_max":347,"ha":347,"o":"m 86 407 l 16 407 q 7 407 3 411 q -1 416 -1 424 l -1 430 l 4 463 q 6 475 10 479 q 15 484 25 484 l 93 484 q 96 503 98 556 q 100 608 112 635 q 134 684 182 713 q 230 741 291 741 q 364 741 409 714 q 454 687 454 644 q 454 614 438 598 q 422 581 394 581 q 374 581 358 590 q 343 598 331 616 q 326 624 319 638 q 302 672 283 672 q 262 672 253 660 q 243 649 243 624 q 243 609 248 574 q 252 540 252 520 q 252 511 251 502 q 250 493 249 484 l 332 484 q 341 484 345 479 q 350 475 350 466 l 350 461 l 345 428 q 343 416 339 412 q 334 407 324 407 l 248 407 l 199 5 q 199 4 199 2 q 194 -35 194 -62 q 194 -72 197 -91 q 199 -110 199 -118 q 199 -158 153 -180 q 107 -202 23 -202 q -4 -202 -18 -193 q -32 -184 -32 -166 q -32 -146 -11 -132 q 10 -117 12 -115 q 18 -106 26 -61 q 34 -15 43 60 z"},"Q":{"x_min":0,"x_max":799,"ha":799,"o":"m 396 -15 q 487 -44 547 -59 q 608 -74 633 -74 q 664 -74 696 -54 q 728 -33 736 -33 q 749 -33 757 -42 q 765 -52 765 -67 q 765 -80 759 -96 q 752 -113 740 -131 q 714 -170 675 -188 q 635 -206 575 -206 q 479 -206 316 -122 l 315 -121 q 303 -115 280 -102 q 192 -55 158 -55 q 135 -55 100 -72 q 66 -88 54 -88 q 38 -88 28 -78 q 19 -68 19 -51 q 19 -17 56 5 q 93 27 153 27 l 163 27 l 163 35 q 94 77 59 146 q 24 216 24 311 q 24 380 43 443 q 62 507 101 563 q 159 647 251 694 q 343 740 452 740 q 599 740 686 651 q 773 562 773 412 q 773 320 739 238 q 705 157 641 96 q 591 47 530 20 q 468 -8 396 -15 z m 375 72 q 463 72 520 166 q 577 259 577 409 q 577 522 536 583 q 496 645 421 645 q 331 645 276 551 q 222 457 222 297 q 222 189 262 131 q 302 72 375 72 z"},"w":{"x_min":0,"x_max":845,"ha":845,"o":"m 217 261 q 212 234 210 211 q 208 188 208 171 q 208 139 223 120 q 237 101 262 101 q 307 101 335 166 q 364 231 375 361 q 376 373 377 396 q 382 464 394 478 q 406 492 444 504 q 482 517 518 517 q 541 517 550 510 q 558 503 558 486 q 558 474 554 446 q 549 418 537 352 q 520 264 514 225 q 509 187 509 165 q 509 132 520 117 q 530 102 553 102 q 607 102 651 165 q 695 229 695 317 q 695 368 679 420 q 663 472 663 476 q 663 496 680 506 q 698 517 730 517 q 771 517 786 493 q 802 469 802 403 q 802 328 789 268 q 776 208 750 159 q 708 81 637 34 q 565 -13 490 -13 q 444 -13 411 7 q 379 27 364 66 q 321 26 277 7 q 233 -13 189 -13 q 122 -13 83 26 q 44 66 44 134 q 44 168 56 238 q 69 308 69 343 q 69 371 64 381 q 59 390 40 396 q 38 396 34 398 q -3 410 -3 428 q -3 442 11 456 q 24 469 51 481 q 95 500 138 511 q 181 523 201 523 q 227 523 238 511 q 249 500 249 473 q 249 463 247 447 q 246 431 242 410 z"},"-":{"x_min":0,"x_max":389,"ha":389,"o":"m 159 201 q 134 201 104 198 q 74 196 69 196 q 51 196 43 203 q 35 211 35 228 q 35 240 40 258 q 45 276 54 298 q 62 317 70 323 q 78 329 106 329 q 111 329 143 329 q 175 328 203 328 q 231 328 262 331 q 292 333 294 333 q 312 333 320 326 q 327 319 327 302 q 327 286 320 262 q 313 238 303 220 q 296 208 289 203 q 282 199 267 199 q 264 199 253 200 q 242 200 235 200 q 234 200 209 201 q 184 201 159 201 z"},"E":{"x_min":0,"x_max":662,"ha":662,"o":"m 70 0 q 15 0 -6 9 q -28 19 -28 41 q -28 53 -23 63 q -19 73 -10 80 q -3 86 18 94 q 39 102 45 111 q 51 118 58 150 q 65 181 76 253 q 95 374 107 468 q 118 563 118 596 q 118 611 115 618 q 111 625 98 633 q 95 635 88 639 q 63 653 63 678 q 63 705 85 717 q 108 729 156 729 l 509 729 q 535 729 562 736 q 590 743 592 743 q 605 743 615 734 q 625 724 634 701 q 645 676 651 650 q 657 625 657 607 q 657 581 646 567 q 635 553 615 553 q 601 553 591 560 q 581 567 566 590 q 548 618 531 627 q 513 636 484 636 l 378 636 q 345 636 329 628 q 313 619 304 597 q 293 572 285 527 q 277 482 277 446 q 277 434 282 431 q 287 428 304 428 l 366 428 q 399 428 411 436 q 422 443 433 465 q 438 474 443 495 q 457 541 486 541 q 504 541 512 532 q 519 522 519 498 q 519 436 510 375 q 500 315 484 268 q 476 246 466 237 q 457 229 441 229 q 424 229 416 237 q 408 246 408 262 q 407 315 397 327 q 386 340 359 340 l 287 340 q 275 340 270 336 q 265 333 262 325 q 254 301 248 250 q 242 198 242 146 q 242 117 260 106 q 278 95 332 95 l 390 95 q 437 95 463 106 q 489 117 513 144 q 519 151 532 175 q 544 199 555 213 q 562 223 572 228 q 582 233 592 233 q 608 233 616 223 q 625 213 625 194 q 625 162 612 116 q 599 70 576 25 q 567 6 556 -4 q 545 -14 535 -14 q 535 -14 509 -7 q 482 0 452 0 z"},"s":{"x_min":0,"x_max":456,"ha":456,"o":"m 187 66 q 215 66 230 79 q 246 93 246 117 q 246 144 187 184 q 173 193 165 199 q 91 250 67 285 q 43 321 43 367 q 43 437 97 480 q 150 524 238 524 q 271 524 303 517 q 336 510 369 496 q 392 486 399 475 q 406 463 406 437 q 406 399 394 378 q 383 358 361 358 q 338 358 321 389 q 315 399 312 405 q 300 424 285 434 q 269 444 251 444 q 229 444 216 432 q 202 420 202 400 q 202 368 262 330 q 272 324 278 320 q 351 274 374 239 q 397 203 397 152 q 397 77 339 31 q 281 -14 183 -14 q 105 -14 48 15 q -10 44 -10 79 q -10 123 7 151 q 23 179 48 179 q 69 179 84 146 q 92 130 97 122 q 112 96 136 81 q 161 66 187 66 z"},">":{"x_min":0,"x_max":833,"ha":833,"o":"m 129 593 l 704 355 l 704 241 l 129 4 l 129 128 l 546 298 l 129 469 z"},"l":{"x_min":0,"x_max":303,"ha":303,"o":"m 226 331 q 216 264 210 210 q 204 156 204 144 q 204 129 209 124 q 214 119 228 119 q 230 119 234 120 q 239 120 241 120 q 257 120 266 114 q 274 107 274 95 q 274 80 262 63 q 250 47 226 33 q 192 12 149 -1 q 105 -14 69 -14 q 44 -14 32 -3 q 21 7 21 31 q 21 46 34 114 q 46 182 54 228 q 73 347 83 433 q 93 518 93 557 q 93 588 88 598 q 83 607 64 613 q 62 614 59 615 q 21 626 21 646 q 21 659 31 671 q 41 683 59 691 q 107 714 159 728 q 211 742 244 742 q 259 742 268 731 q 277 721 277 703 q 277 694 271 657 q 268 632 266 617 z"},"8":{"x_min":0,"x_max":588,"ha":588,"o":"m 356 416 q 387 446 402 475 q 417 505 417 535 q 417 571 396 592 q 376 614 342 614 q 307 614 281 590 q 256 566 256 533 q 256 504 279 477 q 303 449 356 416 z m 231 323 q 202 284 188 250 q 174 215 174 182 q 174 134 202 103 q 230 72 274 72 q 314 72 343 100 q 372 127 372 166 q 372 205 341 240 q 310 275 231 323 z m 188 360 q 144 392 124 425 q 103 459 103 499 q 103 583 174 637 q 245 691 356 691 q 450 691 506 648 q 561 606 561 534 q 561 478 524 437 q 487 395 416 371 q 475 334 502 294 q 530 253 530 203 q 530 159 509 119 q 487 79 448 49 q 408 18 357 2 q 306 -14 250 -14 q 152 -14 91 36 q 30 85 30 163 q 30 225 71 276 q 113 328 188 360 z"},"\\":{"x_min":0,"x_max":278,"ha":278,"o":"m 44 715 q 43 717 43 719 q 43 721 43 725 q 43 734 49 738 q 55 742 69 742 q 103 742 113 737 q 124 731 126 716 l 241 -64 q 242 -66 242 -68 q 242 -70 242 -74 q 242 -84 236 -88 q 230 -92 216 -92 q 184 -92 173 -86 q 163 -81 160 -65 z"},"e":{"x_min":0,"x_max":539,"ha":539,"o":"m 188 190 q 192 136 215 110 q 238 84 282 84 q 301 84 319 90 q 337 96 362 112 q 375 121 396 137 q 417 153 424 153 q 437 153 449 140 q 461 128 461 114 q 461 102 453 89 q 445 77 429 65 q 378 26 323 6 q 268 -14 210 -14 q 116 -14 61 39 q 7 92 7 184 q 7 256 36 323 q 65 389 118 437 q 162 477 223 500 q 285 524 346 524 q 419 524 461 490 q 503 456 503 397 q 503 309 418 250 q 333 190 202 190 z m 301 445 q 282 445 266 434 q 250 424 233 401 q 215 376 203 340 q 191 305 191 281 q 191 274 199 270 q 207 266 219 266 q 265 266 303 306 q 342 347 342 397 q 342 421 332 433 q 321 445 301 445 z"},"b":{"x_min":0,"x_max":593,"ha":593,"o":"m 381 324 q 381 364 366 386 q 351 409 325 409 q 303 409 283 395 q 262 381 244 354 q 218 316 202 261 q 186 206 186 155 q 186 115 201 92 q 216 70 242 70 q 263 70 284 84 q 304 99 323 126 q 349 165 365 219 q 381 273 381 324 z m 242 661 l 216 476 q 215 473 215 470 q 215 467 215 462 q 215 455 217 450 q 219 446 222 446 q 224 446 242 459 q 259 473 276 483 q 317 508 343 516 q 369 525 396 525 q 466 525 507 478 q 548 430 548 349 q 548 290 529 229 q 510 167 474 113 q 433 50 372 17 q 312 -15 235 -15 q 138 -15 87 25 q 36 65 36 141 q 36 152 38 167 q 39 183 42 203 l 57 304 q 69 391 77 460 q 84 530 84 557 q 84 587 79 597 q 74 606 56 613 q 54 614 50 615 q 14 627 14 646 q 14 658 24 670 q 34 682 51 691 q 97 714 145 728 q 193 742 224 742 q 234 742 241 733 q 248 725 248 712 q 248 706 247 693 q 245 681 242 661 z"},"%":{"x_min":0,"x_max":826,"ha":826,"o":"m 635 284 q 606 284 586 248 q 566 211 566 155 q 566 105 581 78 q 597 52 625 52 q 652 52 670 87 q 688 122 688 178 q 688 229 674 256 q 660 284 635 284 z m 451 144 q 451 232 508 291 q 564 350 647 350 q 718 350 762 306 q 805 261 805 188 q 805 103 749 44 q 692 -14 610 -14 q 538 -14 494 29 q 451 72 451 144 z m 690 605 q 690 598 606 499 q 521 399 446 299 q 375 205 327 133 q 278 61 253 11 l 251 8 q 235 -24 226 -24 q 222 -24 212 -20 q 203 -16 185 -6 q 166 5 157 14 q 149 22 149 32 q 149 42 161 54 q 163 57 164 58 q 228 126 344 283 q 373 322 388 342 q 498 488 534 540 q 570 593 586 625 q 588 628 590 634 q 604 660 614 660 q 631 660 661 640 q 690 620 690 605 z m 204 580 q 175 580 155 544 q 135 507 135 451 q 135 401 150 375 q 166 348 194 348 q 221 348 239 383 q 257 418 257 474 q 257 525 243 552 q 229 580 204 580 z m 20 440 q 20 528 76 587 q 133 646 216 646 q 287 646 330 601 q 374 557 374 484 q 374 443 359 405 q 344 368 316 339 q 289 312 254 297 q 218 282 179 282 q 107 282 63 325 q 20 368 20 440 z"},"m":{"x_min":0,"x_max":880,"ha":880,"o":"m 209 496 l 213 472 q 216 456 219 449 q 221 442 223 442 q 224 442 238 453 q 252 464 267 474 q 303 498 335 509 q 367 520 398 520 q 431 520 454 507 q 477 495 493 468 q 497 462 501 453 q 508 440 512 440 q 514 440 535 455 q 549 465 559 472 q 593 496 627 508 q 661 520 691 520 q 750 520 779 484 q 808 449 808 377 q 808 323 795 244 q 782 166 782 143 q 782 129 787 124 q 792 118 805 118 q 807 118 811 119 q 815 119 818 119 q 829 119 833 115 q 838 110 838 100 q 838 83 827 67 q 816 51 794 35 q 762 12 725 -2 q 688 -15 658 -15 q 625 -15 611 -5 q 597 5 597 30 q 597 46 607 98 q 612 122 615 136 q 628 208 635 260 q 642 313 642 336 q 642 367 631 383 q 621 398 599 398 q 554 398 530 342 q 506 287 496 156 q 495 144 494 123 q 488 44 477 30 q 465 15 427 2 q 389 -10 348 -10 q 328 -10 318 -1 q 308 7 308 26 q 308 36 317 87 q 323 118 326 136 q 343 238 349 277 q 354 316 354 336 q 354 367 343 382 q 332 398 310 398 q 265 398 241 342 q 217 287 207 156 q 206 144 205 123 q 199 44 188 30 q 176 14 137 2 q 99 -10 56 -10 q 37 -10 28 -2 q 19 5 19 22 q 19 41 35 122 q 43 165 48 191 q 60 253 66 299 q 72 345 72 366 q 72 394 42 397 q 41 397 40 397 q 38 397 34 398 q -5 409 -5 427 q -5 437 2 446 q 10 456 25 465 q 35 471 50 478 q 64 484 90 494 q 123 506 149 513 q 175 520 185 520 q 193 520 200 513 q 207 506 209 496 z"},"#":{"x_min":0,"x_max":769,"ha":769,"o":"m 344 412 l 303 297 l 427 297 l 468 412 z m 334 716 l 455 716 l 387 524 l 505 524 l 573 716 l 694 716 l 626 524 l 758 524 l 716 412 l 586 412 l 546 298 l 681 298 l 640 186 l 506 186 l 437 -6 l 316 -6 l 385 186 l 267 186 l 198 -6 l 77 -6 l 146 186 l 11 186 l 53 298 l 186 298 l 226 412 l 87 412 l 129 524 l 266 524 z"},",":{"x_min":0,"x_max":294,"ha":294,"o":"m 10 -187 q 10 -179 30 -154 q 50 -129 61 -114 q 79 -88 90 -65 q 100 -42 100 -29 q 100 -21 98 -16 q 95 -11 91 -9 q 88 -8 83 -5 q 30 16 30 67 q 30 114 57 145 q 85 175 127 175 q 165 175 187 148 q 209 121 209 75 q 209 38 191 -7 q 174 -51 139 -102 q 92 -172 73 -190 q 54 -209 37 -209 q 26 -209 18 -202 q 10 -196 10 -187 z"},"n":{"x_min":0,"x_max":611,"ha":611,"o":"m 213 472 q 216 455 219 448 q 222 441 225 441 q 228 441 248 456 q 268 470 286 480 q 322 499 356 509 q 390 518 420 518 q 482 518 512 483 q 542 448 542 376 q 542 323 528 245 q 514 167 514 145 q 514 129 519 124 q 524 118 538 118 q 541 118 545 119 q 550 119 553 119 q 564 119 569 115 q 574 110 574 100 q 574 83 562 66 q 550 50 526 34 q 492 12 455 -1 q 417 -14 387 -14 q 354 -14 343 -5 q 331 5 331 31 q 331 47 345 119 q 347 129 348 135 q 364 220 371 265 q 377 310 377 334 q 377 367 366 383 q 355 398 331 398 q 278 398 250 342 q 222 286 209 148 q 208 138 207 119 q 201 46 188 30 q 176 16 136 3 q 97 -10 60 -10 q 38 -10 28 -2 q 19 5 19 22 q 19 41 35 122 q 43 165 48 191 q 60 253 66 299 q 72 345 72 366 q 72 394 42 397 q 41 397 40 397 q 38 397 34 398 q -5 409 -5 427 q -5 437 2 446 q 10 456 25 465 q 35 471 50 478 q 64 484 90 494 q 121 505 147 511 q 173 518 185 518 q 194 518 200 512 q 207 506 209 496 z"},"h":{"x_min":0,"x_max":606,"ha":606,"o":"m 251 607 l 230 471 q 229 469 229 467 q 229 464 229 460 q 229 456 230 454 q 232 452 235 452 q 236 452 240 454 q 244 456 248 458 l 284 478 q 323 500 354 509 q 385 518 415 518 q 477 518 507 483 q 537 448 537 376 q 537 323 523 245 q 509 167 509 145 q 509 129 514 124 q 520 118 533 118 q 536 118 541 119 q 545 119 548 119 q 559 119 564 115 q 569 110 569 100 q 569 83 557 66 q 545 49 522 34 q 488 12 450 -1 q 413 -14 382 -14 q 350 -14 338 -5 q 326 5 326 31 q 326 47 340 119 q 342 129 343 135 q 359 220 366 265 q 372 310 372 334 q 372 368 361 383 q 351 398 327 398 q 272 398 244 341 q 215 284 203 145 q 202 131 200 108 q 196 44 184 30 q 172 17 132 3 q 91 -10 56 -10 q 34 -10 25 -2 q 16 6 16 25 q 16 46 30 118 q 44 189 51 231 q 70 345 81 433 q 92 521 92 556 q 92 587 86 597 q 81 607 63 613 l 61 614 q 20 627 20 646 q 20 659 30 671 q 40 682 58 691 q 105 714 155 728 q 205 742 236 742 q 248 742 257 731 q 265 720 265 703 q 265 688 254 626 q 252 614 251 607 z"},"z":{"x_min":0,"x_max":458,"ha":458,"o":"m 288 118 q 313 118 325 124 q 337 130 351 147 q 354 151 361 159 q 384 188 398 188 q 409 188 416 180 q 423 172 423 159 q 423 140 415 109 q 408 79 394 46 q 381 15 369 1 q 357 -12 343 -12 q 338 -12 322 -6 q 306 0 288 0 l 40 0 q 14 0 0 10 q -13 20 -13 40 q -13 51 -8 62 q -3 72 9 87 l 238 366 l 239 368 q 249 380 249 382 q 249 385 245 388 q 240 391 234 391 l 150 391 q 121 391 108 387 q 95 383 88 373 q 84 367 78 356 q 64 331 50 331 q 38 331 30 344 q 22 358 22 381 q 22 437 42 478 q 62 519 85 519 q 86 519 91 517 q 114 508 134 508 l 353 508 q 395 508 409 499 q 424 489 424 466 q 424 456 417 442 q 410 429 393 409 l 172 142 l 171 141 q 161 128 161 126 q 161 123 166 120 q 170 118 178 118 z"},"B":{"x_min":0,"x_max":699,"ha":699,"o":"m 473 386 q 562 375 609 328 q 656 281 656 204 q 656 105 580 50 q 504 -6 368 -6 q 335 -6 284 -4 q 233 -2 215 -2 q 194 -2 155 -3 q 115 -4 97 -4 q 22 -4 -3 6 q -29 16 -29 41 q -29 54 -24 63 q -19 73 -9 80 q -3 84 15 91 q 33 98 40 107 q 44 114 50 132 q 55 150 61 179 q 87 308 100 411 q 113 514 113 588 q 113 612 109 619 q 106 625 94 633 q 91 635 87 637 q 58 655 58 676 q 58 707 92 720 q 126 734 203 734 q 206 734 236 733 q 267 733 294 733 q 320 733 365 733 q 410 734 429 734 q 543 734 601 692 q 659 650 659 568 q 659 500 610 452 q 562 404 473 386 z m 272 432 q 278 432 290 431 q 325 428 338 428 q 414 428 452 457 q 491 485 491 541 q 491 590 462 615 q 433 639 373 639 q 325 639 311 624 q 296 609 288 551 z m 258 323 l 239 174 q 237 162 237 153 q 236 144 236 137 q 236 108 255 97 q 273 86 322 86 q 399 86 440 120 q 480 153 480 218 q 480 276 445 301 q 410 326 326 326 q 311 326 294 325 q 277 325 258 323 z"},"K":{"x_min":0,"x_max":699,"ha":699,"o":"m 242 154 q 242 149 241 141 q 240 126 240 122 q 240 108 243 103 q 246 97 257 91 q 260 89 266 86 q 288 73 288 49 q 288 19 249 7 q 210 -5 107 -5 q 28 -5 0 5 q -29 16 -29 41 q -29 54 -24 63 q -19 73 -9 80 q -3 84 15 91 q 33 98 40 107 q 44 114 50 132 q 55 150 61 179 q 87 308 100 411 q 113 514 113 588 q 113 612 109 619 q 106 625 94 633 q 91 635 87 637 q 58 655 58 676 q 58 707 94 721 q 129 735 211 735 q 315 735 346 724 q 376 713 376 683 q 376 657 334 636 q 333 635 331 634 q 315 626 308 615 q 302 604 296 567 l 280 461 q 280 460 280 458 q 278 443 278 437 q 278 430 279 427 q 280 424 282 424 q 287 424 298 431 q 309 439 319 450 l 448 591 q 462 607 467 615 q 471 622 471 628 q 471 635 453 651 q 434 668 434 682 q 434 706 471 720 q 507 735 570 735 q 646 735 680 723 q 713 711 713 685 q 713 667 702 656 q 691 646 655 638 q 626 631 600 614 q 574 597 531 553 l 419 438 q 410 429 406 424 q 403 419 403 417 q 403 414 411 401 q 412 398 413 397 l 567 160 q 587 128 603 111 q 619 93 633 86 q 639 83 651 78 q 683 63 683 41 q 683 17 655 6 q 627 -5 565 -5 q 528 -5 508 -3 q 487 -1 478 3 q 466 9 453 25 q 439 42 420 72 l 287 286 q 280 296 275 302 q 270 307 266 307 q 261 307 258 299 q 255 291 253 270 z"},"R":{"x_min":0,"x_max":718,"ha":718,"o":"m 258 321 q 247 259 241 213 q 236 167 236 141 q 236 123 239 113 q 242 103 248 97 q 252 93 262 88 q 288 74 288 49 q 288 19 249 7 q 210 -5 107 -5 q 28 -5 0 5 q -29 16 -29 41 q -29 54 -24 63 q -19 73 -9 80 q -3 84 15 91 q 33 98 40 107 q 44 114 50 132 q 55 150 61 179 q 87 308 100 411 q 113 514 113 588 q 113 612 109 619 q 106 625 94 633 q 91 635 87 637 q 58 655 58 676 q 58 707 92 720 q 126 734 203 734 q 206 734 236 733 q 267 733 294 733 q 320 733 365 733 q 410 734 429 734 q 546 734 603 691 q 659 649 659 561 q 659 487 615 435 q 571 382 495 365 l 495 357 q 530 344 553 316 q 575 289 585 247 q 591 222 598 181 q 614 96 647 96 q 652 96 659 97 q 667 98 670 98 q 683 98 688 92 q 694 86 694 73 q 694 41 656 18 q 617 -5 560 -5 q 529 -5 503 3 q 478 11 461 26 q 432 52 414 149 q 410 168 408 178 q 392 264 367 295 q 343 325 297 325 q 287 325 277 324 q 268 323 258 321 z m 273 428 q 288 426 301 426 q 314 425 326 425 q 403 425 441 453 q 479 482 479 540 q 479 586 451 615 q 422 643 376 643 q 347 643 328 640 q 308 637 303 632 q 300 629 297 614 q 294 600 291 573 z"},"T":{"x_min":0,"x_max":676,"ha":676,"o":"m 583 729 q 615 729 652 738 q 663 741 665 741 q 684 741 695 708 q 706 675 706 619 q 706 543 695 519 q 684 495 656 495 q 626 495 610 546 q 606 561 603 569 q 589 608 571 620 q 553 633 514 633 q 481 633 470 620 q 458 607 453 566 l 423 360 q 412 279 405 212 q 398 145 398 122 q 398 108 402 102 q 406 95 422 87 q 425 85 431 83 q 453 74 453 49 q 453 18 419 7 q 385 -5 267 -5 q 185 -5 157 5 q 129 15 129 41 q 129 57 136 68 q 144 79 160 87 q 164 89 171 91 q 197 100 203 115 q 210 132 224 199 q 237 266 251 360 q 263 443 271 515 q 279 586 279 603 q 279 620 268 627 q 258 634 233 634 q 203 634 182 623 q 162 612 141 584 q 132 572 117 548 q 85 495 55 495 q 37 495 29 504 q 21 513 21 533 q 21 555 28 584 q 35 613 52 658 q 69 704 82 723 q 95 741 110 741 q 112 741 119 739 q 153 729 192 729 z"},"P":{"x_min":0,"x_max":650,"ha":650,"o":"m 288 551 l 270 417 q 290 416 306 415 q 322 414 335 414 q 408 414 448 446 q 487 477 487 535 q 487 588 458 614 q 430 639 371 639 q 324 639 310 624 q 295 608 288 551 z m 661 547 q 661 438 581 376 q 500 315 356 315 q 343 315 321 316 q 299 317 290 317 q 274 317 267 312 q 259 306 255 290 q 247 257 242 212 q 237 167 237 122 q 237 108 241 102 q 246 95 265 88 q 286 80 291 72 q 297 64 297 49 q 297 19 258 7 q 219 -5 110 -5 q 27 -5 -1 5 q -29 15 -29 41 q -29 54 -24 63 q -19 73 -9 80 q -3 84 15 91 q 33 98 40 107 q 44 114 50 132 q 55 150 61 179 q 87 308 100 411 q 113 514 113 588 q 113 612 109 619 q 106 625 94 633 q 91 635 87 637 q 58 655 58 676 q 58 708 92 721 q 125 734 210 734 q 213 734 225 734 q 278 733 325 733 q 349 733 383 733 q 417 734 429 734 q 548 734 604 688 q 661 643 661 547 z"},"|":{"x_min":0,"x_max":500,"ha":500,"o":"m 192 764 l 309 764 l 309 -236 l 192 -236 z"},"t":{"x_min":0,"x_max":374,"ha":374,"o":"m 85 434 l 21 434 q 12 434 9 436 q 6 438 6 444 l 6 450 l 9 468 q 15 501 94 515 l 97 515 q 99 521 101 533 q 113 586 119 600 q 123 609 131 615 q 140 622 160 627 q 172 630 194 633 q 216 636 238 636 q 254 636 260 631 q 267 625 267 613 q 267 608 267 605 q 267 603 266 600 l 255 509 l 366 509 q 376 509 379 507 q 382 505 382 499 l 382 493 l 377 453 q 375 443 371 438 q 366 434 356 434 l 259 434 q 250 434 247 431 q 244 428 242 413 l 207 171 q 206 165 206 159 q 205 152 205 143 q 205 119 219 106 q 232 93 259 93 q 278 93 305 102 q 332 112 340 112 q 351 112 357 104 q 364 97 364 85 q 364 73 355 62 q 347 50 330 40 q 293 17 241 2 q 189 -13 146 -13 q 92 -13 64 14 q 36 41 36 93 q 36 113 45 173 l 45 174 z"},"M":{"x_min":0,"x_max":896,"ha":896,"o":"m 651 517 l 432 114 q 406 65 392 51 q 379 36 365 36 q 336 36 318 113 q 316 123 315 128 l 219 544 q 187 369 168 255 q 150 141 150 122 q 150 109 152 102 q 155 95 160 91 q 164 88 173 82 q 198 67 198 47 q 198 20 171 8 q 143 -4 75 -4 q 23 -4 -4 7 q -31 18 -31 39 q -31 49 -26 58 q -21 67 -13 72 q -8 75 1 80 q 35 97 47 131 q 53 146 62 192 q 72 238 92 347 q 114 469 121 517 q 128 565 128 589 q 128 608 123 620 q 117 632 106 638 q 103 640 97 643 q 70 657 70 676 q 70 706 119 721 q 168 737 260 737 q 332 737 353 646 q 354 640 355 636 l 417 367 q 421 349 428 335 q 435 322 439 322 q 443 322 457 342 q 471 362 487 392 l 616 634 q 640 679 654 697 q 668 715 682 723 q 692 728 712 730 q 732 733 763 733 q 832 733 865 721 q 897 710 897 686 q 897 667 874 652 q 871 651 870 650 q 869 649 867 648 q 845 635 835 610 q 829 595 823 570 q 818 545 811 490 q 800 395 794 318 q 788 241 788 187 q 788 136 791 121 q 793 105 800 98 q 804 94 815 87 q 842 70 842 49 q 842 18 805 5 q 768 -7 658 -7 q 584 -7 559 2 q 534 12 534 36 q 534 64 563 79 q 592 94 593 95 q 616 120 641 398 q 647 474 651 517 z"},"g":{"x_min":0,"x_max":588,"ha":588,"o":"m 123 -29 q 120 -39 119 -44 q 118 -49 118 -54 q 118 -91 153 -112 q 188 -133 250 -133 q 308 -133 344 -114 q 379 -95 379 -66 q 379 -49 368 -41 q 357 -33 336 -33 q 325 -33 282 -38 q 239 -43 208 -43 q 189 -43 169 -40 q 149 -36 123 -29 z m 200 308 q 200 261 219 237 q 237 213 273 213 q 317 213 349 257 q 381 301 381 365 q 381 409 362 433 q 343 458 309 458 q 263 458 232 415 q 200 373 200 308 z m 63 -5 q 39 8 27 28 q 15 48 15 75 q 15 111 38 138 q 60 165 109 186 q 80 208 63 243 q 47 279 47 322 q 47 412 117 468 q 188 524 303 524 q 329 524 359 521 q 389 518 423 512 q 443 522 462 538 q 480 554 499 575 q 518 560 527 546 q 537 532 537 520 q 537 506 526 491 q 516 476 494 460 q 513 436 523 409 q 532 383 532 354 q 532 261 461 204 q 390 147 271 147 q 243 147 216 151 q 189 155 162 164 q 153 152 149 143 q 145 133 145 125 q 145 105 161 94 q 177 84 209 84 q 239 84 302 89 q 365 94 397 94 q 454 94 484 66 q 514 38 514 -14 q 514 -99 430 -152 q 346 -205 209 -205 q 117 -205 63 -174 q 10 -143 10 -90 q 10 -69 24 -47 q 38 -24 63 -5 z"},"j":{"x_min":0,"x_max":294,"ha":294,"o":"m -39 -120 q -17 -120 -5 -103 q 7 -85 18 -22 q 40 104 53 210 q 66 315 66 347 q 66 372 60 381 q 55 391 36 396 q 35 396 33 397 q -8 409 -8 430 q -8 445 9 459 q 26 473 62 487 q 106 504 149 514 q 191 524 221 524 q 235 524 245 514 q 254 503 254 487 q 254 473 246 431 q 238 389 235 368 q 219 263 203 134 q 187 5 183 -19 q 169 -112 123 -159 q 77 -206 1 -206 q -51 -206 -82 -189 q -113 -172 -113 -145 q -113 -131 -105 -122 q -97 -114 -83 -114 q -76 -114 -62 -117 q -47 -120 -39 -120 z m 276 667 q 276 631 243 605 q 209 579 162 579 q 121 579 98 598 q 74 616 74 648 q 74 688 108 714 q 141 740 193 740 q 230 740 253 720 q 276 700 276 667 z"},"i":{"x_min":0,"x_max":299,"ha":299,"o":"m 276 667 q 276 631 243 605 q 209 579 162 579 q 121 579 98 598 q 74 616 74 648 q 74 688 108 714 q 141 740 193 740 q 230 740 253 720 q 276 700 276 667 z m 20 31 q 20 46 36 126 q 43 166 48 190 q 58 243 63 284 q 68 325 68 346 q 68 371 62 381 q 57 391 37 396 q 36 396 34 397 q -7 409 -7 430 q -7 445 10 459 q 27 473 63 487 q 108 504 150 514 q 191 524 218 524 q 232 524 242 514 q 251 503 251 487 q 251 478 242 425 q 233 372 227 331 q 216 258 210 208 q 204 158 204 145 q 204 129 209 124 q 214 119 229 119 q 231 119 236 120 q 240 120 242 120 q 260 120 268 114 q 277 107 277 95 q 277 80 264 64 q 252 49 228 34 q 191 12 149 -1 q 106 -14 72 -14 q 45 -14 32 -3 q 20 8 20 31 z"},"y":{"x_min":0,"x_max":567,"ha":567,"o":"m 344 75 q 377 140 393 195 q 409 250 409 303 q 409 347 383 401 q 357 455 357 468 q 357 490 377 505 q 396 519 427 519 q 466 519 487 482 q 508 444 508 373 q 508 293 483 205 q 458 117 413 37 q 347 -80 260 -143 q 174 -207 82 -207 q 13 -207 -26 -175 q -66 -143 -66 -88 q -66 -51 -45 -27 q -23 -2 7 -2 q 37 -2 55 -21 q 73 -40 73 -71 q 73 -78 72 -90 q 70 -103 70 -109 q 70 -118 79 -124 q 87 -130 100 -130 q 143 -130 176 -94 q 210 -59 210 -12 q 210 22 186 100 q 163 179 123 270 q 93 339 76 359 q 60 379 38 379 q 35 379 29 378 q 22 377 18 377 q 5 377 -3 383 q -11 389 -11 399 q -11 417 4 437 q 19 458 47 477 q 73 496 103 507 q 133 518 156 518 q 198 518 245 408 q 292 298 344 75 z"},"@":{"x_min":0,"x_max":986,"ha":986,"o":"m 572 153 q 542 106 508 83 q 474 59 436 59 q 360 59 318 103 q 277 147 277 228 q 277 285 302 337 q 326 390 373 433 q 406 463 446 480 q 486 496 528 496 q 575 496 601 475 q 627 453 634 410 l 657 487 l 759 487 l 674 182 q 670 166 668 156 q 667 147 667 139 q 667 117 676 104 q 686 91 701 91 q 716 91 742 104 q 769 118 792 138 q 839 181 864 241 q 889 302 889 375 q 889 434 873 482 q 856 530 823 566 q 775 619 708 647 q 642 675 562 675 q 494 675 433 656 q 371 636 319 598 q 238 540 194 450 q 151 361 151 253 q 151 89 251 -7 q 351 -102 523 -102 q 603 -102 677 -78 q 751 -54 831 -1 l 851 -29 q 777 -84 694 -112 q 611 -140 523 -140 q 312 -140 188 -31 q 63 79 63 263 q 63 362 106 449 q 148 537 229 602 q 296 657 377 685 q 458 713 548 713 q 718 713 821 620 q 924 528 924 374 q 924 294 895 227 q 866 159 811 110 q 782 84 749 71 q 715 57 680 57 q 632 57 604 83 q 575 108 572 153 z m 551 460 q 521 460 497 438 q 473 417 449 370 q 421 315 406 263 q 391 211 391 172 q 391 137 407 117 q 423 96 449 96 q 478 96 505 126 q 533 155 558 214 q 579 262 591 311 q 603 359 603 392 q 603 425 590 442 q 576 460 551 460 z"},".":{"x_min":0,"x_max":294,"ha":294,"o":"m 27 81 q 27 122 54 149 q 82 176 122 176 q 162 176 189 148 q 217 121 217 81 q 217 41 189 13 q 162 -14 122 -14 q 82 -14 54 13 q 27 41 27 81 z"},"p":{"x_min":0,"x_max":609,"ha":609,"o":"m 401 323 q 401 363 386 385 q 371 408 345 408 q 323 408 303 394 q 282 380 264 353 q 238 315 222 260 q 206 205 206 154 q 206 114 221 91 q 236 69 262 69 q 283 69 304 83 q 324 98 343 125 q 369 164 385 218 q 401 272 401 323 z m 65 288 q 68 312 70 332 q 72 353 72 366 q 72 393 43 398 q 41 399 40 399 l 39 399 q -5 407 -5 427 q -5 438 3 447 q 10 457 25 465 q 36 471 52 478 q 68 484 100 495 q 141 508 163 514 q 186 520 195 520 q 204 520 210 513 q 217 505 219 494 l 224 469 q 225 466 226 460 q 230 436 235 436 q 239 436 259 453 q 278 469 295 480 q 333 504 363 514 q 393 525 423 525 q 491 525 530 475 q 570 426 570 340 q 570 279 554 224 q 539 169 509 122 q 468 57 414 20 q 360 -16 306 -16 q 261 -16 207 14 q 194 21 191 21 q 187 21 185 17 q 183 13 181 3 l 174 -43 q 172 -52 172 -61 q 171 -70 171 -79 q 171 -87 175 -95 q 179 -104 185 -106 q 186 -106 189 -108 q 234 -126 234 -148 q 234 -172 198 -183 q 163 -194 86 -194 q 6 -194 -24 -184 q -53 -173 -53 -148 q -53 -125 -21 -109 q -8 -103 -3 -98 q 12 -85 27 15 l 28 23 z"},"X":{"x_min":0,"x_max":694,"ha":694,"o":"m 546 173 q 560 146 571 130 q 583 114 595 106 q 602 102 616 96 q 653 80 653 56 q 653 25 610 10 q 566 -4 472 -4 q 399 -4 370 7 q 342 18 342 44 q 342 52 346 59 q 350 67 356 72 q 360 75 367 79 q 389 93 389 105 q 389 110 386 117 q 384 125 378 135 l 303 282 l 200 146 l 199 145 q 177 115 177 107 q 177 100 196 84 q 215 68 215 52 q 215 23 182 10 q 150 -3 77 -3 q 18 -3 -10 9 q -37 20 -37 45 q -37 70 20 94 q 29 98 33 100 q 58 111 77 127 q 97 144 123 176 l 264 356 l 161 557 q 147 584 136 600 q 124 616 112 624 q 105 628 91 634 q 54 650 54 674 q 54 705 97 719 q 140 734 234 734 q 307 734 336 723 q 365 712 365 686 q 365 678 361 671 q 357 663 351 658 q 346 655 339 650 q 318 638 318 626 q 318 620 321 612 q 323 604 328 595 l 387 482 l 469 585 q 481 600 487 610 q 492 619 492 624 q 492 632 473 647 q 453 662 453 678 q 453 707 486 720 q 520 734 592 734 q 651 734 679 722 q 706 711 706 686 q 706 661 649 637 q 640 633 635 631 q 612 621 593 605 q 574 589 546 554 l 428 405 z"},"*":{"x_min":0,"x_max":500,"ha":500,"o":"m 277 454 q 277 473 272 484 q 268 495 260 495 q 250 495 243 483 q 236 470 233 447 q 233 444 232 437 q 231 417 228 405 q 222 385 206 373 q 189 361 168 361 q 141 361 121 380 q 102 398 102 425 q 102 452 119 469 q 137 486 170 491 q 196 495 211 504 q 226 514 226 525 q 226 531 217 535 q 208 539 193 539 q 181 539 160 533 q 140 528 132 528 q 105 528 85 546 q 66 564 66 589 q 66 617 85 636 q 104 656 130 656 q 148 656 162 647 q 176 639 187 621 q 189 618 193 611 q 219 566 237 566 q 243 566 247 569 q 250 572 250 578 q 250 598 232 628 q 215 659 215 675 q 215 703 233 722 q 251 741 278 741 q 305 741 323 723 q 342 705 342 678 q 342 654 313 621 q 285 589 285 572 q 285 566 288 563 q 292 560 298 560 q 307 560 317 566 q 327 571 338 583 q 342 587 349 595 q 376 627 406 627 q 432 627 451 608 q 471 589 471 564 q 471 538 451 518 q 431 499 403 499 q 390 499 363 513 q 335 527 316 527 q 308 527 303 524 q 299 521 299 514 q 299 503 311 492 q 324 481 346 473 q 373 463 386 447 q 400 430 400 407 q 400 381 381 363 q 362 344 335 344 q 309 344 291 362 q 272 380 272 406 q 272 414 274 430 q 277 447 277 454 z"},"Y":{"x_min":0,"x_max":655,"ha":655,"o":"m 237 335 l 130 557 q 118 582 105 599 q 93 616 81 624 q 74 628 59 635 q 23 650 23 674 q 23 705 66 719 q 109 734 204 734 q 279 734 308 723 q 336 712 336 686 q 336 678 332 670 q 328 663 322 658 q 317 655 310 650 q 289 638 289 626 q 289 621 291 615 q 293 609 300 595 l 378 430 l 481 581 q 491 595 496 607 q 502 618 502 623 q 502 632 483 647 q 465 663 465 678 q 465 707 498 720 q 531 734 603 734 q 663 734 690 722 q 717 711 717 686 q 717 661 660 637 q 651 633 647 631 q 620 619 598 600 q 575 581 557 554 l 403 335 q 400 304 396 251 q 385 135 385 122 q 385 108 389 101 q 393 94 408 87 q 411 85 417 83 q 438 74 438 49 q 438 18 406 7 q 373 -5 258 -5 q 180 -5 152 5 q 125 15 125 40 q 125 74 164 90 q 174 94 178 96 q 203 108 227 267 q 233 310 237 335 z"},"c":{"x_min":0,"x_max":519,"ha":519,"o":"m 7 187 q 7 253 32 315 q 58 377 104 424 q 150 471 212 498 q 274 524 338 524 q 407 524 449 490 q 491 456 491 400 q 491 358 469 333 q 446 308 409 308 q 375 308 357 325 q 340 341 340 375 q 340 381 341 393 q 343 405 343 411 q 343 426 333 435 q 324 445 310 445 q 259 445 223 379 q 187 312 187 213 q 187 147 210 115 q 233 84 282 84 q 301 84 319 90 q 337 96 362 112 q 375 121 396 137 q 417 153 424 153 q 437 153 449 140 q 461 128 461 114 q 461 102 453 89 q 445 77 429 65 q 378 26 323 6 q 268 -14 210 -14 q 115 -14 61 39 q 7 93 7 187 z"},"!":{"x_min":0,"x_max":343,"ha":343,"o":"m 151 237 q 125 237 113 282 q 100 328 100 419 q 100 577 132 658 q 163 740 224 740 q 257 740 274 713 q 291 686 291 634 q 291 579 275 504 q 258 429 227 343 q 204 279 188 258 q 172 237 151 237 z m 34 81 q 34 122 61 149 q 88 176 129 176 q 169 176 197 148 q 224 121 224 81 q 224 41 197 13 q 169 -14 129 -14 q 89 -14 62 13 q 34 41 34 81 z"},"/":{"x_min":0,"x_max":278,"ha":278,"o":"m 186 719 q 189 731 203 737 q 216 742 243 742 q 259 742 264 739 q 270 736 270 728 q 270 725 269 721 q 269 716 267 710 l 67 -72 q 64 -83 50 -87 q 37 -92 10 -92 q -7 -92 -14 -89 q -21 -86 -21 -79 q -21 -77 -21 -75 q -20 -72 -20 -72 z"},"[":{"x_min":0,"x_max":407,"ha":407,"o":"m 123 659 q 128 698 146 714 q 165 729 207 729 l 386 729 q 426 729 436 724 q 447 719 447 706 q 447 671 433 657 q 420 643 381 643 l 331 643 q 304 643 295 635 q 287 626 283 599 l 202 4 q 202 0 201 -8 q 200 -15 200 -18 q 200 -36 208 -42 q 216 -49 240 -49 l 288 -49 q 319 -49 328 -55 q 338 -61 338 -75 q 338 -111 325 -124 q 312 -137 265 -137 l 105 -137 q 62 -137 44 -125 q 26 -113 26 -85 q 26 -79 27 -67 q 28 -56 30 -40 z"},"6":{"x_min":0,"x_max":588,"ha":588,"o":"m 371 226 q 371 276 354 304 q 336 332 305 332 q 266 332 240 288 q 215 245 215 175 q 215 128 234 101 q 253 73 286 73 q 325 73 348 115 q 371 156 371 226 z m 249 405 q 280 432 318 446 q 356 460 397 460 q 470 460 509 412 q 549 365 549 277 q 549 149 469 67 q 388 -15 264 -15 q 161 -15 99 46 q 38 107 38 210 q 38 305 78 398 q 119 491 198 579 q 250 636 300 673 q 351 710 373 710 q 395 710 420 695 q 446 679 446 671 q 446 662 413 633 q 381 604 358 578 q 320 535 293 492 q 266 449 249 405 z"},"r":{"x_min":0,"x_max":470,"ha":470,"o":"m 174 519 q 187 519 196 508 q 204 496 213 465 q 217 452 220 437 q 223 422 224 422 q 226 422 239 438 q 252 454 265 468 q 284 488 309 499 q 333 509 364 509 q 408 509 432 484 q 456 459 456 414 q 456 370 436 344 q 416 319 380 319 q 363 319 352 323 q 340 328 333 337 q 328 344 321 358 q 308 386 290 386 q 257 386 240 335 q 223 283 206 105 q 206 102 205 97 q 198 22 181 12 q 162 1 131 -6 q 100 -14 71 -14 q 48 -14 39 -7 q 30 0 30 19 q 30 37 51 143 l 55 162 q 67 220 73 270 q 80 320 80 346 q 80 372 74 381 q 69 391 52 398 q 47 400 39 403 q 10 413 10 430 q 10 444 23 457 q 37 470 67 483 q 102 499 133 509 q 165 519 174 519 z"},"2":{"x_min":0,"x_max":588,"ha":588,"o":"m 24 0 q -9 0 -17 5 q -25 9 -25 23 q -25 39 -1 58 q 2 61 4 62 l 110 153 l 116 158 q 350 357 350 469 q 350 506 334 524 q 318 542 285 542 q 261 542 236 531 q 210 520 179 494 q 172 488 160 478 q 123 446 102 446 q 85 446 76 455 q 67 463 67 479 q 67 498 85 522 q 104 546 137 571 q 187 608 238 627 q 289 646 341 646 q 426 646 478 599 q 531 553 531 478 q 531 419 493 366 q 455 312 359 242 l 194 120 l 344 120 q 381 120 399 125 q 417 129 432 140 q 446 150 466 176 q 486 201 500 201 q 512 201 519 191 q 527 182 527 166 q 527 150 512 108 q 497 66 473 19 q 457 -12 444 -25 q 431 -38 416 -38 q 404 -38 396 -29 q 387 -21 380 0 z"},"{":{"x_min":0,"x_max":500,"ha":500,"o":"m 416 740 l 416 708 q 362 707 342 682 q 322 657 322 580 l 322 516 q 322 405 297 365 q 272 326 207 310 q 272 294 297 255 q 322 215 322 105 l 322 41 q 322 -36 342 -61 q 362 -86 416 -88 l 416 -119 l 410 -119 q 298 -119 257 -83 q 215 -47 215 50 l 215 141 q 215 223 188 253 q 162 284 87 291 l 87 330 q 162 337 188 367 q 215 398 215 480 l 215 571 q 215 668 257 704 q 298 740 410 740 z"},"9":{"x_min":0,"x_max":588,"ha":588,"o":"m 213 401 q 213 352 230 324 q 248 296 279 296 q 318 296 344 339 q 369 383 369 452 q 369 499 350 525 q 331 552 298 552 q 259 552 236 511 q 213 471 213 401 z m 336 225 q 294 196 257 182 q 221 168 186 168 q 115 168 72 218 q 29 268 29 352 q 29 418 55 477 q 81 536 128 578 q 165 611 214 629 q 263 646 320 646 q 426 646 486 583 q 546 519 546 407 q 546 314 508 229 q 470 144 388 51 q 337 -5 288 -42 q 238 -79 216 -79 q 195 -79 169 -63 q 143 -47 143 -39 q 143 -31 176 -2 q 208 27 232 55 q 277 108 303 150 q 329 193 336 225 z"}," ":{"x_min":0,"x_max":294,"ha":294,"o":""},"I":{"x_min":0,"x_max":359,"ha":359,"o":"m 227 735 q 316 735 346 724 q 376 713 376 683 q 376 672 370 663 q 365 654 353 645 q 348 641 331 633 q 313 625 308 615 q 299 595 281 478 l 281 475 q 263 352 251 252 q 240 153 240 122 q 240 108 243 103 q 246 97 257 91 q 260 89 266 86 q 288 73 288 49 q 288 19 249 7 q 210 -5 107 -5 q 28 -5 0 5 q -29 16 -29 41 q -29 54 -24 63 q -19 73 -9 80 q -3 84 15 91 q 33 98 40 107 q 44 114 50 132 q 55 150 61 179 q 87 308 100 411 q 113 514 113 588 q 113 612 109 619 q 106 625 94 633 q 91 635 87 637 q 58 655 58 676 q 58 708 95 721 q 131 735 227 735 z"},"H":{"x_min":0,"x_max":757,"ha":757,"o":"m -29 41 q -29 54 -24 63 q -19 73 -9 80 q -3 84 15 91 q 33 98 40 107 q 44 114 50 132 q 55 150 61 179 q 87 306 100 409 q 113 512 113 588 q 113 612 109 619 q 106 625 94 633 q 91 635 87 637 q 58 655 58 676 q 58 707 94 721 q 129 735 209 735 q 313 735 343 724 q 373 713 373 683 q 373 658 342 641 q 312 624 308 620 q 301 611 290 561 q 280 510 280 463 q 280 447 295 441 q 310 435 366 435 l 393 435 q 458 435 478 439 q 498 443 503 453 q 510 466 516 511 q 523 557 523 606 q 523 624 507 633 q 504 634 503 635 q 487 645 481 653 q 475 661 475 673 q 475 708 512 721 q 549 735 647 735 q 726 735 756 724 q 786 712 786 685 q 786 658 753 642 q 720 625 716 621 q 709 613 703 588 q 697 562 688 497 q 664 331 654 248 q 644 164 644 128 q 644 115 647 109 q 650 103 663 96 q 665 95 669 93 q 701 77 701 54 q 701 21 663 8 q 625 -6 533 -6 q 451 -6 419 4 q 386 15 386 40 q 386 54 391 63 q 396 73 408 81 q 412 83 429 90 q 446 97 450 107 q 455 118 460 138 q 465 158 469 181 q 477 225 481 261 q 486 297 486 306 q 486 324 470 329 q 454 335 375 335 l 355 335 q 300 335 282 331 q 265 328 261 318 q 252 292 244 235 q 237 179 237 122 q 237 108 240 103 q 243 97 253 91 q 256 89 261 86 q 284 73 284 49 q 284 19 246 7 q 208 -5 106 -5 q 27 -5 -1 5 q -29 16 -29 41 z"},"4":{"x_min":0,"x_max":588,"ha":588,"o":"m 129 159 l 303 159 q 318 159 324 165 q 330 170 332 186 l 364 412 q 365 415 365 417 q 365 420 365 424 q 365 430 363 433 q 361 436 357 436 q 349 436 305 390 q 262 345 184 254 l 137 198 q 126 184 122 177 q 117 170 117 166 q 117 163 121 161 q 124 159 129 159 z m 330 -130 q 310 -130 302 -124 q 294 -117 294 -102 q 294 -100 294 -97 q 295 -93 296 -86 l 313 40 l 15 40 q -6 40 -13 44 q -19 48 -19 58 q -19 60 -19 63 q -19 66 -18 70 l -13 102 q -8 140 49 213 q 105 286 289 483 l 308 503 q 441 646 509 646 q 531 646 540 639 q 549 631 549 613 q 549 605 548 600 q 548 594 547 589 l 484 156 l 522 156 q 532 156 537 151 q 542 146 542 135 l 542 129 l 533 66 q 531 51 524 45 q 517 40 501 40 l 469 40 l 454 -84 q 451 -110 441 -120 q 431 -130 409 -130 z"},"~":{"x_min":0,"x_max":833,"ha":833,"o":"m 747 400 l 747 276 q 698 242 652 226 q 607 209 563 209 q 541 209 520 213 q 498 216 479 223 q 473 225 460 229 q 336 273 274 273 q 233 273 188 255 q 144 236 87 196 l 87 320 q 142 355 188 373 q 235 390 276 390 q 307 390 338 384 q 369 378 420 362 q 428 359 445 354 q 523 326 566 326 q 607 326 651 344 q 694 361 747 400 z"},"D":{"x_min":0,"x_max":773,"ha":773,"o":"m -29 39 q -29 53 -21 66 q -14 79 -2 86 q 5 90 23 97 q 41 104 44 113 q 49 125 55 153 q 61 181 67 223 q 92 386 101 469 q 111 552 111 599 q 111 624 88 635 q 79 639 74 642 q 65 647 60 656 q 55 666 55 677 q 55 710 96 722 q 138 734 289 734 l 393 734 q 490 734 551 715 q 613 695 659 652 q 700 615 724 548 q 749 481 749 407 q 749 317 717 238 q 684 159 622 98 q 570 46 498 20 q 426 -7 340 -7 q 297 -7 229 -3 q 160 0 135 0 q 114 0 86 0 q 58 -1 51 -1 q 6 -1 -11 8 q -29 17 -29 39 z m 555 411 q 555 523 510 585 q 465 648 385 648 q 345 648 328 636 q 310 625 300 584 q 286 526 273 445 q 260 363 249 257 q 245 217 242 182 q 240 148 240 133 q 240 107 263 95 q 285 82 330 82 q 435 82 495 170 q 555 258 555 411 z"},"^":{"x_min":0,"x_max":1000,"ha":1000,"o":"m 436 714 l 563 714 l 797 438 l 738 438 l 499 608 l 260 438 l 201 438 z"},"0":{"x_min":0,"x_max":588,"ha":588,"o":"m 322 559 q 268 559 231 467 q 195 374 195 231 q 195 156 213 117 q 231 77 265 77 q 318 77 355 170 q 392 263 392 407 q 392 478 373 519 q 354 559 322 559 z m 19 269 q 19 332 34 388 q 50 445 80 494 q 125 565 191 606 q 257 646 331 646 q 440 646 504 572 q 569 499 569 375 q 569 294 542 220 q 515 147 462 87 q 419 39 365 12 q 311 -14 254 -14 q 148 -14 84 63 q 19 141 19 269 z"},"F":{"x_min":0,"x_max":634,"ha":634,"o":"m 361 428 l 366 428 q 399 428 411 436 q 422 443 433 465 q 438 474 443 495 q 457 541 486 541 q 504 541 512 532 q 519 522 519 498 q 519 436 510 375 q 500 315 484 268 q 476 246 466 237 q 457 229 441 229 q 424 229 416 237 q 408 246 408 262 q 407 315 397 327 q 386 340 359 340 l 287 340 q 275 340 270 336 q 265 333 262 325 q 260 319 257 299 q 256 293 256 290 q 247 220 244 185 q 240 150 240 133 q 240 122 245 112 q 250 102 257 99 q 261 97 269 94 q 309 78 309 51 q 309 20 273 8 q 238 -5 144 -5 q 42 -5 7 5 q -28 15 -28 41 q -28 53 -23 63 q -19 72 -10 80 q -3 86 18 94 q 39 102 45 111 q 51 118 58 150 q 65 181 76 253 q 95 374 107 468 q 118 563 118 596 q 118 611 115 618 q 111 625 98 633 q 95 635 88 639 q 63 653 63 678 q 63 705 85 717 q 108 729 156 729 l 509 729 q 535 729 562 736 q 590 743 592 743 q 605 743 615 734 q 625 724 634 701 q 645 676 651 650 q 657 625 657 607 q 657 581 646 567 q 635 553 615 553 q 601 553 591 560 q 581 567 566 590 q 548 618 531 627 q 513 636 484 636 l 378 636 q 345 636 329 628 q 313 619 304 597 q 293 572 285 527 q 277 482 277 446 q 277 434 282 431 q 287 428 304 428 z"},"`":{"x_min":0,"x_max":500,"ha":500,"o":"m 164 634 q 144 640 137 646 q 130 652 130 665 q 130 697 141 721 q 152 746 166 746 q 171 746 178 744 q 185 742 199 737 l 358 670 q 391 656 399 648 q 407 640 407 628 q 407 604 398 591 q 389 577 372 577 q 367 577 358 579 q 350 580 339 583 z"},"k":{"x_min":0,"x_max":556,"ha":556,"o":"m 216 264 q 287 276 327 304 q 366 332 366 369 q 366 386 355 396 q 344 407 326 407 q 284 407 252 366 q 220 325 216 264 z m 230 471 q 229 468 229 466 q 229 463 229 459 q 229 455 230 453 q 231 451 234 451 q 235 451 249 461 q 263 472 275 480 q 305 500 337 510 q 370 521 402 521 q 458 521 490 492 q 522 463 522 412 q 522 359 486 318 q 450 276 380 247 q 414 161 430 136 q 446 112 465 104 q 471 102 483 100 q 512 96 512 73 q 512 46 466 16 q 420 -13 373 -13 q 350 -13 333 -2 q 317 9 302 38 q 286 68 267 123 q 247 178 229 178 q 223 178 217 170 q 210 162 208 152 q 207 144 203 105 q 199 66 190 41 q 186 31 177 24 q 168 17 144 8 q 122 0 97 -5 q 73 -10 56 -10 q 34 -10 25 -2 q 16 6 16 25 q 16 46 32 131 q 44 193 51 231 q 70 345 81 433 q 92 521 92 556 q 92 587 86 597 q 81 607 63 613 l 61 614 q 20 627 20 646 q 20 659 30 671 q 40 682 58 691 q 105 714 155 728 q 205 742 236 742 q 248 742 257 731 q 265 720 265 703 q 265 688 254 626 q 252 614 251 607 z"},"u":{"x_min":0,"x_max":611,"ha":611,"o":"m 358 76 q 314 35 260 11 q 206 -12 154 -12 q 96 -12 64 23 q 33 58 33 123 q 33 170 49 254 q 65 338 65 371 q 65 383 61 388 q 57 394 43 399 q 41 400 36 402 q 9 412 9 431 q 9 446 22 457 q 35 469 66 481 q 120 502 151 512 q 183 521 199 521 q 222 521 233 509 q 244 496 244 469 q 244 432 222 331 q 200 230 200 172 q 200 138 210 122 q 221 107 244 107 q 297 107 325 162 q 353 217 369 366 q 371 380 373 405 q 377 463 389 477 q 401 491 440 504 q 479 517 517 517 q 539 517 549 510 q 558 502 558 485 q 558 475 549 417 q 539 360 533 318 q 524 258 519 208 q 514 159 514 145 q 514 129 519 124 q 524 118 538 118 q 541 118 545 119 q 550 119 553 119 q 564 119 569 115 q 574 110 574 100 q 574 83 563 67 q 552 52 530 37 q 493 13 462 0 q 432 -12 410 -12 q 387 -12 376 4 q 366 21 358 76 z"},"]":{"x_min":0,"x_max":407,"ha":407,"o":"m 275 -66 q 270 -105 251 -121 q 232 -137 191 -137 l 12 -137 q -28 -137 -39 -132 q -49 -126 -49 -111 q -49 -77 -35 -63 q -21 -50 17 -50 l 67 -50 q 95 -50 103 -41 q 112 -33 115 -7 l 196 588 q 196 591 197 598 q 198 608 198 611 q 198 628 190 635 q 182 641 158 641 l 109 641 q 81 641 70 647 q 60 653 60 668 q 60 703 72 716 q 83 729 133 729 l 293 729 q 338 729 355 717 q 372 704 372 672 q 372 669 371 658 q 370 646 368 632 z"},"U":{"x_min":0,"x_max":764,"ha":764,"o":"m 244 292 q 239 263 237 241 q 235 219 235 203 q 235 140 272 107 q 309 74 379 74 q 430 74 466 92 q 502 110 527 147 q 539 166 549 206 q 559 246 569 319 l 595 503 q 598 524 600 546 q 601 568 601 591 q 601 609 596 618 q 591 628 573 639 q 558 649 552 657 q 547 665 547 676 q 547 705 577 719 q 606 732 671 732 q 744 732 769 722 q 794 712 794 686 q 794 658 752 636 q 750 635 748 634 q 718 619 702 513 l 700 503 l 669 298 q 654 198 638 152 q 622 105 596 75 q 557 29 490 5 q 424 -19 335 -19 q 202 -19 135 32 q 69 84 69 187 q 69 225 80 305 l 81 314 l 105 483 q 109 511 111 535 q 113 560 113 579 q 113 604 108 614 q 104 624 91 634 q 89 635 84 638 q 55 655 55 676 q 55 707 90 720 q 125 734 206 734 q 308 734 339 724 q 370 713 370 686 q 370 657 328 636 l 325 634 q 306 625 296 599 q 286 574 273 487 z"},"o":{"x_min":0,"x_max":576,"ha":576,"o":"m 297 444 q 252 444 218 377 q 184 310 184 214 q 184 144 203 105 q 221 66 254 66 q 300 66 333 135 q 366 205 366 309 q 366 372 347 408 q 329 444 297 444 z m 6 210 q 6 271 28 324 q 51 377 96 424 q 142 472 201 498 q 259 524 320 524 q 422 524 483 464 q 544 404 544 303 q 544 244 521 188 q 499 131 457 86 q 413 38 355 12 q 298 -14 233 -14 q 133 -14 70 49 q 6 112 6 210 z"},"N":{"x_min":0,"x_max":759,"ha":759,"o":"m 195 490 q 175 348 163 249 q 152 150 152 122 q 152 108 155 103 q 158 97 169 91 q 172 89 177 86 q 200 73 200 49 q 200 22 169 9 q 137 -4 73 -4 q 15 -4 -10 6 q -34 17 -34 41 q -34 54 -29 64 q -24 73 -15 80 q -9 84 10 91 q 28 98 35 107 q 39 113 44 130 q 48 146 55 179 q 82 312 95 414 q 108 516 108 588 q 108 612 104 619 q 101 625 89 633 q 87 634 82 637 q 53 655 53 676 q 53 706 85 720 q 116 734 182 734 l 189 734 q 231 734 249 726 q 267 718 281 698 q 281 697 375 549 q 469 401 569 248 q 589 379 600 477 q 612 576 612 607 q 612 621 609 627 q 606 633 595 639 q 592 641 586 644 q 564 657 564 681 q 564 708 595 721 q 627 734 691 734 q 750 734 774 724 q 798 713 798 689 q 798 671 789 660 q 780 649 758 640 q 726 627 716 583 q 715 578 714 575 q 699 508 682 396 q 666 284 639 76 q 632 24 616 6 q 601 -11 567 -11 q 539 -11 517 5 q 494 22 466 66 q 461 73 371 218 q 280 362 195 490 z"},"+":{"x_min":0,"x_max":833,"ha":833,"o":"m 359 596 l 475 596 l 475 355 l 709 355 l 709 242 l 475 242 l 475 0 l 359 0 l 359 242 l 124 242 l 124 355 l 359 355 z"},"G":{"x_min":0,"x_max":796,"ha":796,"o":"m 400 89 q 458 89 489 119 q 519 148 519 205 q 519 222 514 231 q 509 240 498 244 q 490 247 475 250 q 432 259 432 292 q 432 324 470 337 q 509 350 612 350 q 702 350 737 338 q 771 326 771 296 q 771 278 763 269 q 755 259 731 250 q 727 249 719 246 q 694 238 687 212 q 685 205 682 189 q 667 121 639 89 q 595 38 521 10 q 447 -19 357 -19 q 207 -19 116 69 q 26 158 26 304 q 26 398 58 478 q 90 558 153 620 q 212 678 290 710 q 367 741 450 741 q 524 741 588 710 q 598 705 600 705 q 604 705 612 709 q 621 713 625 713 q 634 713 643 706 q 652 699 662 683 q 679 657 688 629 q 697 602 697 580 q 697 551 683 535 q 670 520 644 520 q 629 520 616 527 q 603 534 593 548 q 590 552 583 562 q 520 647 449 647 q 349 647 286 557 q 223 468 223 323 q 223 215 271 152 q 319 89 400 89 z"},"q":{"x_min":0,"x_max":593,"ha":593,"o":"m 385 361 q 385 397 370 418 q 356 439 331 439 q 310 439 291 427 q 271 414 251 388 q 220 347 199 287 q 179 227 179 176 q 179 140 193 119 q 208 98 232 98 q 252 98 273 111 q 293 124 313 150 q 345 192 365 251 q 385 311 385 361 z m 482 -14 q 479 -36 478 -48 q 477 -60 477 -69 q 477 -83 481 -91 q 485 -99 495 -105 q 499 -107 504 -110 q 535 -125 535 -148 q 535 -173 506 -183 q 476 -194 403 -194 q 319 -194 283 -183 q 248 -172 248 -148 q 248 -125 286 -110 q 302 -104 309 -99 q 324 -88 333 -27 q 333 -19 334 -15 l 346 74 q 294 31 246 9 q 197 -14 156 -14 q 90 -14 51 34 q 12 82 12 162 q 12 217 28 271 q 44 325 75 373 q 120 445 180 484 q 239 524 301 524 q 334 524 376 508 q 418 491 427 491 q 437 491 468 508 q 500 524 519 524 q 533 524 542 512 q 550 500 550 479 q 550 471 548 457 q 547 443 542 411 z"},"d":{"x_min":0,"x_max":604,"ha":604,"o":"m 530 331 q 520 258 513 207 q 507 157 507 145 q 507 129 512 124 q 517 118 531 118 q 534 118 538 119 q 542 119 545 119 q 556 119 562 115 q 567 110 567 100 q 567 83 556 68 q 544 52 522 37 q 486 14 456 1 q 425 -11 403 -11 q 387 -11 379 -5 q 371 0 363 18 q 356 34 353 53 q 351 72 347 72 q 343 72 324 59 q 310 48 300 42 q 250 11 218 -2 q 185 -14 156 -14 q 90 -14 51 34 q 12 82 12 162 q 12 216 29 270 q 45 324 76 374 q 120 444 180 484 q 241 525 300 525 q 327 525 359 513 q 391 501 396 501 q 404 501 410 526 q 415 552 415 591 q 415 615 387 623 q 385 624 384 624 q 382 625 379 625 q 337 637 337 658 q 337 675 351 687 q 366 698 399 709 q 446 724 488 733 q 530 742 549 742 q 564 742 573 731 q 582 721 582 703 q 582 692 579 670 q 577 648 572 617 z m 385 361 q 385 397 370 418 q 356 439 331 439 q 310 439 291 427 q 271 414 251 388 q 220 346 199 286 q 179 226 179 175 q 179 139 194 119 q 208 98 233 98 q 253 98 273 111 q 293 124 313 150 q 344 190 365 250 q 385 310 385 361 z"},"1":{"x_min":0,"x_max":588,"ha":588,"o":"m 148 542 q 148 558 165 571 q 182 584 222 598 q 280 617 335 628 q 390 639 426 639 q 451 639 464 631 q 477 624 477 609 q 477 601 471 592 q 466 583 455 575 q 452 573 446 569 q 425 559 419 532 q 419 532 418 530 q 404 460 389 359 q 377 276 369 206 q 362 135 362 115 q 362 96 366 89 q 371 83 390 77 q 394 76 401 74 q 446 61 446 38 q 446 14 408 4 q 370 -6 272 -6 q 164 -6 124 3 q 85 13 85 36 q 85 48 95 56 q 104 65 128 73 q 134 75 145 78 q 175 85 184 112 q 187 122 193 154 q 198 187 210 266 q 222 351 229 411 q 237 472 237 487 q 237 500 230 507 q 224 514 208 516 q 202 517 189 518 q 148 521 148 542 z"},"5":{"x_min":0,"x_max":588,"ha":588,"o":"m 194 403 q 192 399 192 396 q 191 392 191 388 q 191 385 194 384 q 196 382 207 380 l 234 374 q 384 341 439 296 q 495 252 495 172 q 495 122 475 76 q 454 30 415 -8 q 373 -48 311 -72 q 250 -95 184 -95 q 107 -95 58 -77 q 10 -58 10 -30 q 10 -11 22 0 q 35 11 56 11 q 66 11 101 3 q 136 -5 162 -5 q 225 -5 266 33 q 306 70 306 128 q 306 172 276 197 q 246 223 166 242 q 162 243 154 245 q 66 267 66 295 q 66 310 98 396 q 131 482 178 578 q 194 612 208 622 q 222 631 257 632 l 330 633 q 456 635 545 650 q 554 652 555 652 q 562 652 566 648 q 569 645 569 636 q 569 599 552 562 q 534 524 515 515 q 504 510 469 507 q 435 504 378 503 l 293 503 q 255 503 239 489 q 223 476 207 435 z"}}}
